<svg width="16" height="17" viewBox="0 0 16 17" fill="none" xmlns="http://www.w3.org/2000/svg">
<path d="M14.1279 3.18324C13.9522 2.66208 13.4543 2.28867 12.8686 2.28867H10.6488V0.512878H5.32541V2.28867H3.10567C2.51994 2.28867 2.0334 2.66205 1.84636 3.18324L0 8.49998V15.5992C0 16.0857 0.399361 16.4871 0.887909 16.4871H1.77582C2.26236 16.4871 2.66172 16.0858 2.66172 15.5992V14.7113H13.3125V15.5992C13.3125 16.0857 13.7119 16.4871 14.1984 16.4871H15.0863C15.5749 16.4871 15.9742 16.0858 15.9742 15.5992V8.49998L14.1279 3.18324ZM3.10564 12.0516C2.37016 12.0516 1.77579 11.4539 1.77579 10.7177C1.77579 9.98159 2.37016 9.38789 3.10564 9.38789C3.84313 9.38789 4.43751 9.98226 4.43751 10.7177C4.43751 11.4532 3.84313 12.0516 3.10564 12.0516ZM12.8686 12.0516C12.1311 12.0516 11.5367 11.4539 11.5367 10.7177C11.5367 9.98159 12.1311 9.38789 12.8686 9.38789C13.604 9.38789 14.1984 9.98226 14.1984 10.7177C14.1984 11.4532 13.604 12.0516 12.8686 12.0516ZM1.77579 7.6121L3.10564 3.61855H12.8686L14.1984 7.6121H1.77579Z" fill="#5D6E82"/>
</svg>
