<svg width="11" height="17" viewBox="0 0 11 17" fill="none" xmlns="http://www.w3.org/2000/svg">
<path d="M8.91332e-08 4.80006C8.19788e-08 4.47272 0.160215 4.16609 0.428936 3.97916L4.54032 1.11906C4.88358 0.880271 5.33918 0.880271 5.68245 1.11906L9.79383 3.97916C10.0626 4.16609 10.2228 4.47272 10.2228 4.80006L10.2228 15.2782C10.2228 15.8305 9.77505 16.2782 9.22277 16.2782L0.999999 16.2782C0.447715 16.2782 3.30211e-07 15.8305 3.1814e-07 15.2782L8.91332e-08 4.80006Z" fill="#5D6E82"/>
<path d="M5.10506 8.6593C5.53127 8.79158 5.86532 8.91785 6.10722 9.03811C6.34912 9.15235 6.55647 9.32973 6.72925 9.57024C6.9078 9.81075 6.99707 10.1324 6.99707 10.5353C6.99707 10.8239 6.93084 11.0975 6.79837 11.356C6.6659 11.6086 6.46143 11.816 6.18498 11.9784C5.90852 12.1347 5.56295 12.2129 5.14826 12.2129L5.10506 12.2129L5.10506 12.9344L4.8718 12.9344L4.8718 12.2038C4.34192 12.1497 3.90996 11.9663 3.5759 11.6537C3.24185 11.335 3.05467 10.9472 3.01435 10.4902L3.65366 10.4902C3.68246 10.7608 3.80053 11.0163 4.00787 11.2568C4.22097 11.4973 4.50895 11.6416 4.8718 11.6897L4.8718 9.16438C4.45135 9.03209 4.12018 8.91184 3.87828 8.80361C3.63638 8.68937 3.42904 8.518 3.25625 8.28952C3.08346 8.05502 2.99707 7.73935 2.99707 7.3425C2.99707 7.02383 3.07194 6.74423 3.22169 6.50372C3.37144 6.2572 3.58454 6.06479 3.861 5.92649C4.14322 5.7882 4.47439 5.71905 4.85452 5.71905L4.8718 5.71905L4.8718 4.93439L5.10506 4.93439L5.10506 5.72807C5.61766 5.77016 6.02371 5.93551 6.3232 6.22413C6.6227 6.51274 6.80413 6.85848 6.86748 7.26133L6.21953 7.26133C6.17346 7.02082 6.05539 6.80135 5.86532 6.60293C5.68102 6.40451 5.4276 6.28125 5.10506 6.23315L5.10506 8.6593ZM3.63638 7.31545C3.63638 7.6702 3.74005 7.93777 3.94739 8.11815C4.1605 8.29252 4.46863 8.44886 4.8718 8.58715L4.8718 6.21511L4.85452 6.21511C4.48015 6.21511 4.18354 6.31131 3.96467 6.50372C3.74581 6.69613 3.63638 6.96671 3.63638 7.31545ZM5.13098 11.7078C5.52263 11.7078 5.825 11.5996 6.03811 11.3831C6.25121 11.1606 6.35776 10.881 6.35776 10.5443C6.35776 10.1835 6.24833 9.90996 6.02947 9.72356C5.81636 9.53115 5.50823 9.37182 5.10506 9.24555L5.10506 11.7078L5.13098 11.7078Z" fill="white"/>
</svg>
