<svg width="12" height="16" viewBox="0 0 12 16" fill="none" xmlns="http://www.w3.org/2000/svg">
<path d="M12 4.5C12 3.125 10.875 2 9.5 2C8.09375 2 7 3.125 7 4.5C7 5.65625 7.75 6.625 8.78125 6.90625C8.75 7.40625 8.65625 7.8125 8.4375 8.0625C7.96875 8.65625 6.90625 8.78125 5.78125 8.875C4.90625 8.9375 3.96875 9.03125 3.25 9.40625V4.90625C4.25 4.59375 5 3.625 5 2.5C5 1.125 3.875 0 2.5 0C1.09375 0 0 1.125 0 2.5C0 3.625 0.71875 4.59375 1.75 4.90625V11.125C0.71875 11.4375 0 12.4062 0 13.5C0 14.9062 1.09375 16 2.5 16C3.875 16 5 14.9062 5 13.5C5 12.4375 4.3125 11.5312 3.375 11.1875C3.46875 11.0312 3.625 10.875 3.84375 10.75C4.34375 10.5 5.125 10.4375 5.90625 10.375C7.25 10.25 8.71875 10.0938 9.625 9C10.0625 8.46875 10.2812 7.75 10.2812 6.875C11.2812 6.5625 12 5.625 12 4.5ZM2.5 2C2.75 2 3 2.25 3 2.5C3 2.78125 2.75 3 2.5 3C2.21875 3 2 2.78125 2 2.5C2 2.25 2.21875 2 2.5 2ZM2.5 14C2.21875 14 2 13.7812 2 13.5C2 13.25 2.21875 13 2.5 13C2.75 13 3 13.25 3 13.5C3 13.7812 2.75 14 2.5 14ZM9.5 4C9.75 4 10 4.25 10 4.5C10 4.78125 9.75 5 9.5 5C9.21875 5 9 4.78125 9 4.5C9 4.25 9.21875 4 9.5 4Z" fill="#5D6E82"/>
</svg>
