<svg width="56" height="56" viewBox="0 0 56 56" fill="none" xmlns="http://www.w3.org/2000/svg">
<rect x="0.5" y="0.5" width="55" height="55" rx="3.5" fill="#F9FAFD"/>
<rect x="0.5" y="0.5" width="55" height="55" rx="3.5" stroke="#D8E2EE"/>
<path fill-rule="evenodd" clip-rule="evenodd" d="M26 25.3657C26 25.0896 26.2239 24.8657 26.5 24.8657H35.5C35.7761 24.8657 36 25.0896 36 25.3657V26.3657C36 26.6419 35.7761 26.8657 35.5 26.8657H26.5C26.2239 26.8657 26 26.6419 26 26.3657V25.3657Z" fill="#5D6E82"/>
<path d="M37.5376 26.0435C37.731 25.8501 37.731 25.5278 37.5376 25.3345L33.3696 21.145C33.1548 20.9517 32.8325 20.9517 32.6392 21.145L32.145 21.6392C31.9517 21.8325 31.9517 22.1548 32.145 22.3696L35.4536 25.6782L32.145 29.0083C31.9517 29.2231 31.9517 29.5454 32.145 29.7388L32.6392 30.2329C32.8325 30.4263 33.1548 30.4263 33.3696 30.2329L37.5376 26.0435Z" fill="#5D6E82"/>
<path fill-rule="evenodd" clip-rule="evenodd" d="M29.6826 30.0122C29.6826 30.2883 29.4588 30.5122 29.1826 30.5122L20.1826 30.5122C19.9065 30.5122 19.6826 30.2884 19.6826 30.0122L19.6826 29.0122C19.6826 28.7361 19.9065 28.5122 20.1826 28.5122L29.1826 28.5122C29.4588 28.5122 29.6826 28.7361 29.6826 29.0122L29.6826 30.0122Z" fill="#5D6E82"/>
<path d="M18.145 29.3345C17.9517 29.5278 17.9517 29.8501 18.145 30.0435L22.313 34.2329C22.5278 34.4263 22.8501 34.4263 23.0435 34.2329L23.5376 33.7388C23.731 33.5454 23.731 33.2231 23.5376 33.0083L20.229 29.6997L23.5376 26.3696C23.731 26.1548 23.731 25.8325 23.5376 25.6392L23.0435 25.145C22.8501 24.9517 22.5278 24.9517 22.313 25.145L18.145 29.3345Z" fill="#5D6E82"/>
</svg>
