<svg width="14" height="15" viewBox="0 0 14 15" fill="none" xmlns="http://www.w3.org/2000/svg">
<path d="M7 14.899V0.898987" stroke="#5D6E82" stroke-width="1.1202"/>
<path fill-rule="evenodd" clip-rule="evenodd" d="M8 1.10119C8 0.54912 7.55217 0.101013 7 0.101013C6.44746 0.101013 6 0.54912 6 1.10119C6 1.65327 6.44746 2.10101 7 2.10101C7.55217 2.10101 8 1.65327 8 1.10119Z" fill="#5D6E82"/>
<path fill-rule="evenodd" clip-rule="evenodd" d="M1.1779 10.2953C1.29719 10.4078 1.45495 10.4704 1.61891 10.4704H9.35714C9.71218 10.4704 10 10.1826 10 9.82756V8.54184C10 8.1868 9.71218 7.89899 9.35714 7.89899H1.61891C1.45495 7.89899 1.29719 7.96163 1.1779 8.07411L0.496084 8.71696C0.226952 8.97072 0.226952 9.39868 0.496084 9.65244L1.1779 10.2953Z" fill="#5D6E82"/>
<path fill-rule="evenodd" clip-rule="evenodd" d="M12.8221 4.07409C12.7028 3.96161 12.545 3.89897 12.3811 3.89897L4.64286 3.89897C4.28782 3.89897 4 4.18679 4 4.54183L4 5.82754C4 6.18258 4.28782 6.4704 4.64286 6.4704L12.3811 6.4704C12.545 6.4704 12.7028 6.40775 12.8221 6.29528L13.5039 5.65242C13.773 5.39867 13.773 4.9707 13.5039 4.71695L12.8221 4.07409Z" fill="#5D6E82"/>
</svg>
