<svg width="28" height="19" viewBox="0 0 28 19" fill="none" xmlns="http://www.w3.org/2000/svg">
<mask id="mask0" style="mask-type:alpha" maskUnits="userSpaceOnUse" x="0" y="0" width="28" height="19">
<path d="M26.25 0H1.75C0.783502 0 0 0.783502 0 1.75V17.15C0 18.1165 0.783502 18.9 1.75 18.9H26.25C27.2165 18.9 28 18.1165 28 17.15V1.75C28 0.783502 27.2165 0 26.25 0Z" fill="white"/>
</mask>
<g mask="url(#mask0)">
<path d="M26.25 0H1.75C0.783502 0 0 0.783502 0 1.75V17.15C0 18.1165 0.783502 18.9 1.75 18.9H26.25C27.2165 18.9 28 18.1165 28 17.15V1.75C28 0.783502 27.2165 0 26.25 0Z" fill="#D8D8D8"/>
<path fill-rule="evenodd" clip-rule="evenodd" d="M0 18.9H35.7V0.0125427H0V18.9Z" fill="#FFFFFE"/>
<path fill-rule="evenodd" clip-rule="evenodd" d="M0 1.46545H35.7V0.0125427H0V1.46545Z" fill="#A02735"/>
<path fill-rule="evenodd" clip-rule="evenodd" d="M0 4.37115H35.7V2.91824H0V4.37115Z" fill="#A02735"/>
<path fill-rule="evenodd" clip-rule="evenodd" d="M0 7.27697H35.7V5.82407H0V7.27697Z" fill="#A02735"/>
<path fill-rule="evenodd" clip-rule="evenodd" d="M0 10.1827H35.7V8.72977H0V10.1827Z" fill="#A02735"/>
<path fill-rule="evenodd" clip-rule="evenodd" d="M0 13.0883H35.7V11.6356H0V13.0883Z" fill="#A02735"/>
<path fill-rule="evenodd" clip-rule="evenodd" d="M0 15.9942H35.7V14.5413H0V15.9942Z" fill="#A02735"/>
<path fill-rule="evenodd" clip-rule="evenodd" d="M0 18.9H35.7V17.4471H0V18.9Z" fill="#A02735"/>
<path fill-rule="evenodd" clip-rule="evenodd" d="M0 10.1827H14.28V0.0125427H0V10.1827Z" fill="#37355C"/>
<path fill-rule="evenodd" clip-rule="evenodd" d="M0.671021 0.838173L1.01112 1.08662L0.881294 1.48855L1.2214 1.24022L1.56162 1.48855L1.43167 1.08662L1.77177 0.838173H1.35134L1.2214 0.436249L1.09145 0.838173H0.671021Z" fill="#FFFFFE"/>
<path fill-rule="evenodd" clip-rule="evenodd" d="M3.03833 0.838173L3.37843 1.08662L3.24848 1.48855L3.58871 1.24022L3.92881 1.48855L3.79886 1.08662L4.13908 0.838173H3.71865L3.58871 0.436249L3.45876 0.838173H3.03833Z" fill="#FFFFFE"/>
<path fill-rule="evenodd" clip-rule="evenodd" d="M5.40576 0.838173L5.74598 1.08662L5.61603 1.48855L5.95626 1.24022L6.29636 1.48855L6.16641 1.08662L6.50663 0.838173H6.08608L5.95614 0.436249L5.82631 0.838173H5.40576Z" fill="#FFFFFE"/>
<path fill-rule="evenodd" clip-rule="evenodd" d="M7.77332 0.838173L8.11354 1.08662L7.98359 1.48855L8.32369 1.24022L8.66391 1.48855L8.53396 1.08662L8.87407 0.838173H8.45364L8.32369 0.436249L8.19374 0.838173H7.77332Z" fill="#FFFFFE"/>
<path fill-rule="evenodd" clip-rule="evenodd" d="M10.1409 0.838173L10.481 1.08662L10.351 1.48855L10.6912 1.24022L11.0313 1.48855L10.9015 1.08662L11.2416 0.838173H10.8212L10.6912 0.436249L10.5613 0.838173H10.1409Z" fill="#FFFFFE"/>
<path fill-rule="evenodd" clip-rule="evenodd" d="M12.5083 0.838173L12.8485 1.08662L12.7186 1.48855L13.0588 1.24022L13.3989 1.48855L13.2689 1.08662L13.6092 0.838173H13.1886L13.0588 0.436249L12.9288 0.838173H12.5083Z" fill="#FFFFFE"/>
<path fill-rule="evenodd" clip-rule="evenodd" d="M1.85468 1.85816L2.1949 2.10649L2.06495 2.50853L2.40505 2.26008L2.74527 2.50853L2.61532 2.10649L2.95543 1.85816H2.535L2.40505 1.45612L2.2751 1.85816H1.85468Z" fill="#FFFFFE"/>
<path fill-rule="evenodd" clip-rule="evenodd" d="M4.22205 1.85816L4.56215 2.10649L4.43232 2.50853L4.77242 2.26008L5.11264 2.50853L4.98269 2.10649L5.3228 1.85816H4.90237L4.77242 1.45612L4.64247 1.85816H4.22205Z" fill="#FFFFFE"/>
<path fill-rule="evenodd" clip-rule="evenodd" d="M6.5896 1.85816L6.9297 2.10649L6.79975 2.50853L7.13997 2.26008L7.48008 2.50853L7.35025 2.10649L7.69035 1.85816H7.26992L7.13997 1.45612L7.01003 1.85816H6.5896Z" fill="#FFFFFE"/>
<path fill-rule="evenodd" clip-rule="evenodd" d="M8.95703 1.85816L9.29725 2.10649L9.1673 2.50853L9.50741 2.26008L9.84763 2.50853L9.71768 2.10649L10.0579 1.85816H9.63735L9.50741 1.45612L9.37758 1.85816H8.95703Z" fill="#FFFFFE"/>
<path fill-rule="evenodd" clip-rule="evenodd" d="M11.3246 1.85816L11.6647 2.10649L11.5349 2.50853L11.875 2.26008L12.2152 2.50853L12.0852 2.10649L12.4253 1.85816H12.0049L11.875 1.45612L11.745 1.85816H11.3246Z" fill="#FFFFFE"/>
<path fill-rule="evenodd" clip-rule="evenodd" d="M0.671021 2.87803L1.01112 3.12648L0.881294 3.5284L1.2214 3.28007L1.56162 3.5284L1.43167 3.12648L1.77177 2.87803H1.35134L1.2214 2.47598L1.09145 2.87803H0.671021Z" fill="#FFFFFE"/>
<path fill-rule="evenodd" clip-rule="evenodd" d="M3.03833 2.87803L3.37843 3.12648L3.24848 3.5284L3.58871 3.28007L3.92881 3.5284L3.79886 3.12648L4.13908 2.87803H3.71865L3.58871 2.47598L3.45876 2.87803H3.03833Z" fill="#FFFFFE"/>
<path fill-rule="evenodd" clip-rule="evenodd" d="M5.40576 2.87803L5.74598 3.12648L5.61603 3.5284L5.95626 3.28007L6.29636 3.5284L6.16641 3.12648L6.50663 2.87803H6.08608L5.95614 2.47598L5.82631 2.87803H5.40576Z" fill="#FFFFFE"/>
<path fill-rule="evenodd" clip-rule="evenodd" d="M7.77332 2.87803L8.11354 3.12648L7.98359 3.5284L8.32369 3.28007L8.66391 3.5284L8.53396 3.12648L8.87407 2.87803H8.45364L8.32369 2.47598L8.19374 2.87803H7.77332Z" fill="#FFFFFE"/>
<path fill-rule="evenodd" clip-rule="evenodd" d="M10.1409 2.87803L10.481 3.12648L10.351 3.5284L10.6912 3.28007L11.0313 3.5284L10.9015 3.12648L11.2416 2.87803H10.8212L10.6912 2.47598L10.5613 2.87803H10.1409Z" fill="#FFFFFE"/>
<path fill-rule="evenodd" clip-rule="evenodd" d="M12.5083 2.87803L12.8485 3.12648L12.7186 3.5284L13.0588 3.28007L13.3989 3.5284L13.2689 3.12648L13.6092 2.87803H13.1886L13.0588 2.47598L12.9288 2.87803H12.5083Z" fill="#FFFFFE"/>
<path fill-rule="evenodd" clip-rule="evenodd" d="M1.88391 3.90128L2.22401 4.14973L2.09407 4.55178L2.43429 4.30333L2.77439 4.55178L2.64444 4.14973L2.98466 3.90128H2.56423L2.43429 3.49936L2.30434 3.90128H1.88391Z" fill="#FFFFFE"/>
<path fill-rule="evenodd" clip-rule="evenodd" d="M4.25134 3.90128L4.59156 4.14973L4.46162 4.55178L4.80184 4.30333L5.14194 4.55178L5.01199 4.14973L5.35221 3.90128H4.93167L4.80172 3.49936L4.67189 3.90128H4.25134Z" fill="#FFFFFE"/>
<path fill-rule="evenodd" clip-rule="evenodd" d="M6.61865 3.90128L6.95887 4.14973L6.82893 4.55178L7.16903 4.30333L7.50925 4.55178L7.3793 4.14973L7.7194 3.90128H7.29898L7.16903 3.49936L7.03908 3.90128H6.61865Z" fill="#FFFFFE"/>
<path fill-rule="evenodd" clip-rule="evenodd" d="M8.98627 3.90128L9.32637 4.14973L9.19642 4.55178L9.53664 4.30333L9.87674 4.55178L9.74692 4.14973L10.087 3.90128H9.66659L9.53664 3.49936L9.40669 3.90128H8.98627Z" fill="#FFFFFE"/>
<path fill-rule="evenodd" clip-rule="evenodd" d="M11.3539 3.90128L11.694 4.14973L11.564 4.55178L11.9043 4.30333L12.2444 4.55178L12.1144 4.14973L12.4546 3.90128H12.0341L11.9043 3.49936L11.7743 3.90128H11.3539Z" fill="#FFFFFE"/>
<path fill-rule="evenodd" clip-rule="evenodd" d="M0.706909 4.91267L1.04701 5.16112L0.917063 5.56316L1.25728 5.31471L1.59751 5.56316L1.46756 5.16112L1.80766 4.91267H1.38723L1.25728 4.51074L1.12734 4.91267H0.706909Z" fill="#FFFFFE"/>
<path fill-rule="evenodd" clip-rule="evenodd" d="M3.07422 4.91267L3.41444 5.16112L3.28449 5.56316L3.62471 5.31471L3.96481 5.56316L3.83487 5.16112L4.17509 4.91267H3.75454L3.62471 4.51074L3.49476 4.91267H3.07422Z" fill="#FFFFFE"/>
<path fill-rule="evenodd" clip-rule="evenodd" d="M5.44183 4.91267L5.78205 5.16112L5.65211 5.56316L5.99221 5.31471L6.33243 5.56316L6.20248 5.16112L6.54258 4.91267H6.12216L5.99221 4.51074L5.86226 4.91267H5.44183Z" fill="#FFFFFE"/>
<path fill-rule="evenodd" clip-rule="evenodd" d="M7.8092 4.91267L8.14942 5.16112L8.01948 5.56316L8.35958 5.31471L8.6998 5.56316L8.56985 5.16112L8.90995 4.91267H8.48953L8.35958 4.51074L8.22963 4.91267H7.8092Z" fill="#FFFFFE"/>
<path fill-rule="evenodd" clip-rule="evenodd" d="M10.1768 4.91267L10.5169 5.16112L10.3869 5.56316L10.7271 5.31471L11.0672 5.56316L10.9373 5.16112L11.2775 4.91267H10.8571L10.7271 4.51074L10.5972 4.91267H10.1768Z" fill="#FFFFFE"/>
<path fill-rule="evenodd" clip-rule="evenodd" d="M12.5442 4.91267L12.8844 5.16112L12.7545 5.56316L13.0946 5.31471L13.4348 5.56316L13.3048 5.16112L13.6451 4.91267H13.2245L13.0946 4.51074L12.9647 4.91267H12.5442Z" fill="#FFFFFE"/>
<path fill-rule="evenodd" clip-rule="evenodd" d="M0.729126 6.92026L1.06935 7.16872L0.939399 7.57064L1.2795 7.32231L1.61972 7.57064L1.48977 7.16872L1.82988 6.92026H1.40945L1.2795 6.51834L1.14967 6.92026H0.729126Z" fill="#FFFFFE"/>
<path fill-rule="evenodd" clip-rule="evenodd" d="M3.09644 6.92026L3.43654 7.16872L3.30659 7.57064L3.64681 7.32231L3.98703 7.57064L3.85708 7.16872L4.19719 6.92026H3.77676L3.64681 6.51834L3.51686 6.92026H3.09644Z" fill="#FFFFFE"/>
<path fill-rule="evenodd" clip-rule="evenodd" d="M5.46405 6.92026L5.80415 7.16872L5.6742 7.57064L6.01443 7.32231L6.35453 7.57064L6.22458 7.16872L6.5648 6.92026H6.14437L6.01443 6.51834L5.88448 6.92026H5.46405Z" fill="#FFFFFE"/>
<path fill-rule="evenodd" clip-rule="evenodd" d="M7.83142 6.92026L8.17164 7.16872L8.04169 7.57064L8.38191 7.32231L8.72202 7.57064L8.59207 7.16872L8.93229 6.92026H8.51174L8.38191 6.51834L8.25197 6.92026H7.83142Z" fill="#FFFFFE"/>
<path fill-rule="evenodd" clip-rule="evenodd" d="M10.1988 6.92026L10.5389 7.16872L10.4091 7.57064L10.7492 7.32231L11.0894 7.57064L10.9594 7.16872L11.2995 6.92026H10.8791L10.7492 6.51834L10.6192 6.92026H10.1988Z" fill="#FFFFFE"/>
<path fill-rule="evenodd" clip-rule="evenodd" d="M12.5664 6.92026L12.9065 7.16872L12.7766 7.57064L13.1168 7.32231L13.4569 7.57064L13.3271 7.16872L13.6672 6.92026H13.2467L13.1168 6.51834L12.9868 6.92026H12.5664Z" fill="#FFFFFE"/>
<path fill-rule="evenodd" clip-rule="evenodd" d="M0.700073 8.95139L1.04029 9.19984L0.910346 9.60189L1.25045 9.35344L1.59067 9.60189L1.46072 9.19984L1.80082 8.95139H1.3804L1.25045 8.54947L1.1205 8.95139H0.700073Z" fill="#FFFFFE"/>
<path fill-rule="evenodd" clip-rule="evenodd" d="M3.06763 8.95139L3.40773 9.19984L3.27778 9.60189L3.618 9.35344L3.95822 9.60189L3.82827 9.19984L4.16838 8.95139H3.74795L3.618 8.54947L3.48805 8.95139H3.06763Z" fill="#FFFFFE"/>
<path fill-rule="evenodd" clip-rule="evenodd" d="M5.435 8.95139L5.7751 9.19984L5.64515 9.60189L5.98537 9.35344L6.32547 9.60189L6.19553 9.19984L6.53575 8.95139H6.11532L5.98537 8.54947L5.85542 8.95139H5.435Z" fill="#FFFFFE"/>
<path fill-rule="evenodd" clip-rule="evenodd" d="M7.80237 8.95139L8.14259 9.19984L8.01264 9.60189L8.35286 9.35344L8.69296 9.60189L8.56302 9.19984L8.90324 8.95139H8.48269L8.35286 8.54947L8.22291 8.95139H7.80237Z" fill="#FFFFFE"/>
<path fill-rule="evenodd" clip-rule="evenodd" d="M10.1699 8.95139L10.51 9.19984L10.3802 9.60189L10.7203 9.35344L11.0605 9.60189L10.9306 9.19984L11.2707 8.95139H10.8502L10.7203 8.54947L10.5903 8.95139H10.1699Z" fill="#FFFFFE"/>
<path fill-rule="evenodd" clip-rule="evenodd" d="M12.5375 8.95139L12.8776 9.19984L12.7477 9.60189L13.0879 9.35344L13.428 9.60189L13.2981 9.19984L13.6383 8.95139H13.2179L13.0879 8.54947L12.958 8.95139H12.5375Z" fill="#FFFFFE"/>
<path fill-rule="evenodd" clip-rule="evenodd" d="M1.89099 5.90647L2.23109 6.1548L2.10115 6.55684L2.44137 6.30839L2.78147 6.55684L2.65164 6.1548L2.99174 5.90647H2.57131L2.44137 5.50443L2.31142 5.90647H1.89099Z" fill="#FFFFFE"/>
<path fill-rule="evenodd" clip-rule="evenodd" d="M4.25836 5.90647L4.59858 6.1548L4.46863 6.55684L4.80886 6.30839L5.14896 6.55684L5.01901 6.1548L5.35923 5.90647H4.93868L4.80886 5.50443L4.67891 5.90647H4.25836Z" fill="#FFFFFE"/>
<path fill-rule="evenodd" clip-rule="evenodd" d="M6.62573 5.90647L6.96595 6.1548L6.83601 6.55684L7.17611 6.30839L7.51633 6.55684L7.38638 6.1548L7.7266 5.90647H7.30606L7.17611 5.50443L7.04628 5.90647H6.62573Z" fill="#FFFFFE"/>
<path fill-rule="evenodd" clip-rule="evenodd" d="M8.99329 5.90647L9.33339 6.1548L9.20344 6.55684L9.54366 6.30839L9.88376 6.55684L9.75393 6.1548L10.094 5.90647H9.67361L9.54366 5.50443L9.41371 5.90647H8.99329Z" fill="#FFFFFE"/>
<path fill-rule="evenodd" clip-rule="evenodd" d="M11.3607 5.90647L11.7009 6.1548L11.571 6.55684L11.9112 6.30839L12.2513 6.55684L12.1214 6.1548L12.4616 5.90647H12.0412L11.9112 5.50443L11.7813 5.90647H11.3607Z" fill="#FFFFFE"/>
<path fill-rule="evenodd" clip-rule="evenodd" d="M1.88391 7.93439L2.22401 8.18285L2.09407 8.58477L2.43429 8.33644L2.77439 8.58477L2.64456 8.18285L2.98466 7.93439H2.56423L2.43429 7.53247L2.30434 7.93439H1.88391Z" fill="#FFFFFE"/>
<path fill-rule="evenodd" clip-rule="evenodd" d="M4.25134 7.93439L4.59144 8.18285L4.4615 8.58477L4.80172 8.33644L5.14182 8.58477L5.01187 8.18285L5.35209 7.93439H4.93167L4.80172 7.53247L4.67177 7.93439H4.25134Z" fill="#FFFFFE"/>
<path fill-rule="evenodd" clip-rule="evenodd" d="M6.61865 7.93439L6.95887 8.18285L6.82893 8.58477L7.16915 8.33644L7.50925 8.58477L7.3793 8.18285L7.71952 7.93439H7.29898L7.16903 7.53247L7.0392 7.93439H6.61865Z" fill="#FFFFFE"/>
<path fill-rule="evenodd" clip-rule="evenodd" d="M8.98627 7.93439L9.32637 8.18285L9.19654 8.58477L9.53664 8.33644L9.87686 8.58477L9.74692 8.18285L10.087 7.93439H9.66659L9.53664 7.53247L9.40669 7.93439H8.98627Z" fill="#FFFFFE"/>
<path fill-rule="evenodd" clip-rule="evenodd" d="M11.3539 7.93439L11.694 8.18285L11.564 8.58477L11.9043 8.33644L12.2444 8.58477L12.1144 8.18285L12.4546 7.93439H12.0342L11.9043 7.53247L11.7743 7.93439H11.3539Z" fill="#FFFFFE"/>
</g>
</svg>
