<svg width="15" height="15" viewBox="0 0 15 15" fill="none" xmlns="http://www.w3.org/2000/svg">
<path fill-rule="evenodd" clip-rule="evenodd" d="M11.6319 14.8654L9.36357 8.50863L8.71445 7.86433L6.14672 10.432C5.92156 10.6571 5.61257 10.9302 5.26046 11.2104L5.27723 14.0175C5.28202 14.1852 5.191 14.36 5.09759 14.5062L4.72392 14.8678C4.62092 14.9612 4.45326 14.8726 4.35026 14.7169L3.52389 12.42C2.90112 12.7792 2.37655 12.978 2.20409 12.7984C2.02445 12.6212 2.22325 12.0894 2.59213 11.4571L2.59692 11.4595L0.283079 10.6475C0.127386 10.5469 0.0387619 10.3793 0.132178 10.2763L0.493864 9.89544C0.639976 9.80203 0.814831 9.7134 0.982501 9.7134L3.8209 9.70143C4.09157 9.3661 4.35026 9.0691 4.56823 8.85353L7.13597 6.2859L6.53475 5.68232L0.134573 3.4548C-0.0929784 3.37816 0.0363666 3.29193 0.0387618 3.23684L0.515422 2.73625C0.58728 2.69553 0.680695 2.62607 0.929804 2.6117L9.80909 3.61767L12.305 1.1219C13.2607 0.161432 14.396 -0.264911 14.8296 0.171012C15.2631 0.60454 14.8416 1.73985 13.8811 2.69793L11.3852 5.1937L12.4679 14.0702C12.4583 14.3193 12.3912 14.4127 12.3505 14.4846L11.8523 14.9612C11.7972 14.9636 11.7133 15.093 11.6319 14.8654Z" fill="#2A7BE4"/>
</svg>
