<svg width="14" height="19" viewBox="0 0 14 19" fill="none" xmlns="http://www.w3.org/2000/svg">
<rect x="1.55554" y="4.88889" width="10.8889" height="13.2222" rx="2" fill="#5D6E82"/>
<rect x="5" y="16" width="8" height="1" transform="rotate(-90 5 16)" fill="#EDF2F8"/>
<rect x="8" y="16" width="8" height="1" transform="rotate(-90 8 16)" fill="#EDF2F8"/>
<path d="M13.2222 16.1667C13.2222 15.9519 13.3963 15.7778 13.6111 15.7778C13.8259 15.7778 14 15.9519 14 16.1667V17.7222C14 17.937 13.8259 18.1111 13.6111 18.1111C13.3963 18.1111 13.2222 17.937 13.2222 17.7222V16.1667Z" fill="#5D6E82"/>
<path d="M0 16.1667C0 15.9519 0.174111 15.7778 0.388889 15.7778C0.603666 15.7778 0.777778 15.9519 0.777778 16.1667V17.7222C0.777778 17.937 0.603666 18.1111 0.388889 18.1111C0.174111 18.1111 0 17.937 0 17.7222V16.1667Z" fill="#5D6E82"/>
<rect x="4.5" y="0.5" width="5" height="6" rx="1.5" stroke="#5D6E82"/>
</svg>
