<svg width="17" height="14" viewBox="0 0 17 14" fill="none" xmlns="http://www.w3.org/2000/svg">
<path d="M16.2674 4.81462C16.2849 5.85568 15.8057 6.93109 15.1145 7.92944C14.1744 9.28793 12.9856 10.4077 11.7166 11.4471C10.643 12.3215 9.51569 13.1274 8.34135 13.8601C8.20694 13.9438 8.10509 13.9589 7.96316 13.8693C6.06973 12.6733 4.27565 11.35 2.69946 9.74774C1.77695 8.81053 0.924572 7.8105 0.427003 6.57429C-0.280112 4.81546 -0.12483 3.11692 1.0114 1.58339C2.34715 -0.219001 4.75401 -0.510463 6.56897 0.852216C7.15391 1.29379 7.64853 1.84432 8.02578 2.47369C8.13431 2.65209 8.15101 2.65125 8.26288 2.47369C8.87231 1.48875 9.66208 0.706484 10.7557 0.279338C11.5577 -0.0403717 12.4435 -0.0805842 13.271 0.165152C14.0985 0.410889 14.8197 0.928332 15.319 1.63448C15.9643 2.52227 16.2699 3.51476 16.2674 4.81462Z" fill="#5D6E82"/>
</svg>
