<svg width="13" height="15" viewBox="0 0 13 15" fill="none" xmlns="http://www.w3.org/2000/svg">
<path d="M0.0735056 4.67858L2.58392 0.726419C2.64299 0.637938 2.70206 0.578952 2.80543 0.534711C3.02694 0.44623 3.26322 0.534713 3.38135 0.711676L5.89177 4.67858C6.11328 5.0325 5.80317 5.47491 5.38969 5.37168L4.01634 5.04725V8.99941C5.16818 7.89339 6.7335 7.21504 8.44649 7.18555L8.12161 5.79935C8.03301 5.40118 8.47603 5.07675 8.81567 5.29795L12.7733 7.80492C12.8619 7.8639 12.9209 7.92289 12.9652 8.02612C13.0538 8.24732 12.9652 8.48328 12.788 8.60125L8.81567 11.1082C8.46126 11.3294 8.01824 11.0197 8.12161 10.6068L8.44649 9.23537C5.99514 9.29435 4.01634 11.3147 4.01634 13.7774V14.1903C4.01634 14.3673 3.88343 14.5 3.70622 14.5H2.27382C2.09661 14.5 1.9637 14.3673 1.9637 14.1903V5.04725L0.590356 5.37168C0.162109 5.47491 -0.148002 5.0325 0.0735056 4.67858Z" fill="#5D6E82"/>
</svg>
