<svg width="14" height="16" viewBox="0 0 14 16" fill="none" xmlns="http://www.w3.org/2000/svg">
<path d="M14 11.25V0.75C14 0.34375 13.6562 0 13.25 0H3C1.34375 0 0 1.34375 0 3V13C0 14.6562 1.34375 16 3 16H13.25C13.6562 16 14 15.6875 14 15.25V14.75C14 14.5312 13.875 14.3125 13.7188 14.1875C13.5625 13.6875 13.5625 12.3125 13.7188 11.8438C13.875 11.7188 14 11.5 14 11.25ZM4 4.1875C4 4.09375 4.0625 4 4.1875 4H10.8125C10.9062 4 11 4.09375 11 4.1875V4.8125C11 4.9375 10.9062 5 10.8125 5H4.1875C4.0625 5 4 4.9375 4 4.8125V4.1875ZM4 6.1875C4 6.09375 4.0625 6 4.1875 6H10.8125C10.9062 6 11 6.09375 11 6.1875V6.8125C11 6.9375 10.9062 7 10.8125 7H4.1875C4.0625 7 4 6.9375 4 6.8125V6.1875ZM11.9062 14H3C2.4375 14 2 13.5625 2 13C2 12.4688 2.4375 12 3 12H11.9062C11.8438 12.5625 11.8438 13.4688 11.9062 14Z" fill="#5D6E82"/>
</svg>
